<svg width="1898" height="309" viewBox="0 0 1898 309" fill="none" xmlns="http://www.w3.org/2000/svg">
<path d="M0 4.88281H57.9178C66.4266 4.88281 72.3247 8.89551 75.588 16.9209C76.5791 19.4348 77.0869 21.9488 77.0869 24.4386V238.029H177.114C185.888 238.029 191.907 241.921 195.171 249.68C196.162 252.194 196.669 254.708 196.669 257.198V303.827H19.5557C10.781 303.827 4.76202 299.935 1.4987 292.176C0.483443 289.662 0 287.172 0 284.658V4.88281Z" fill="black"/>
<path d="M287.293 261.331L277.14 303.827H219.223C213.953 303.827 209.698 301.071 206.435 295.56C205.178 293.312 204.55 291.04 204.55 288.792C204.55 287.801 204.791 286.423 205.299 284.658L282.386 4.88281H365.492C375.523 4.88281 383.041 9.52398 388.045 18.7821C389.036 20.5467 389.785 22.408 390.293 24.4144L466.993 303.803H407.576C397.303 303.803 389.761 299.041 385.023 289.517C384.274 287.776 383.646 286.133 383.138 284.634L377.506 261.331H287.269H287.293ZM303.827 195.533H360.996L332.423 80.8336L303.851 195.533H303.827Z" fill="black"/>
<path d="M565.545 222.22V303.827H508.014C499.24 303.827 493.221 299.935 489.957 292.176C488.942 289.662 488.459 287.172 488.459 284.658V4.88281H596.752C639.877 4.88281 673.211 18.7821 696.779 46.6291C713.821 66.9342 722.354 89.995 722.354 115.811C722.354 145.641 711.452 170.587 689.648 190.65C666.587 211.705 635.622 222.244 596.777 222.244H565.57L565.545 222.22ZM565.545 70.681V156.422H596.752C618.049 156.422 632.335 148.662 639.611 133.119C642.125 127.608 643.382 121.831 643.382 115.811C643.382 101.018 637.483 89.1248 625.711 80.0842C617.444 73.8235 607.775 70.681 596.752 70.681H565.545Z" fill="black"/>
<path d="M868.623 308.71C833.766 308.71 804.058 297.421 779.498 274.868C755.688 252.557 743.65 225.991 743.408 195.146V111.678C743.408 81.3412 755.302 55.283 779.136 33.4551C803.961 11.1436 833.79 0 868.623 0C903.456 0 932.802 11.1678 957.361 33.4551C981.171 55.7665 993.209 82.4774 993.451 113.539V197.008C993.451 227.345 981.534 253.403 957.724 275.231C932.899 297.542 903.19 308.686 868.599 308.686L868.623 308.71ZM868.623 242.912C884.166 242.912 896.204 236.264 904.713 222.969C909.717 214.944 912.231 206.29 912.231 197.032V113.563C912.231 96.7634 905.97 83.6135 893.424 74.0894C885.907 68.578 877.64 65.8223 868.599 65.8223C853.298 65.8223 841.284 72.349 832.509 85.3781C827.239 93.4034 824.605 102.178 824.605 111.702V195.171C824.605 211.971 830.986 225.121 843.774 234.645C851.291 240.156 859.559 242.912 868.599 242.912H868.623Z" fill="black"/>
<path d="M1107.79 214.315V303.802H1050.26C1041.48 303.802 1035.46 299.91 1032.2 292.151C1031.18 289.637 1030.7 287.147 1030.7 284.633V4.85791H1139C1182.6 4.85791 1216.2 18.5155 1239.77 45.8549C1256.31 65.1689 1264.6 87.0936 1264.6 111.653C1264.6 139.984 1254.06 163.794 1233 183.108C1224.23 190.891 1214.2 197.273 1202.93 202.277L1274.75 303.802H1199.55C1186.52 303.56 1176.49 298.412 1169.48 288.38L1117.58 214.29H1107.81L1107.79 214.315ZM1107.79 70.6803V148.516H1139C1160.8 148.516 1175.21 141.12 1182.24 126.326C1184.49 121.564 1185.62 116.56 1185.62 111.29C1185.62 97.512 1179.61 86.6101 1167.57 78.5848C1159.3 73.3151 1149.78 70.6803 1139 70.6803H1107.79Z" fill="black"/>
<path d="M1305.57 4.88207H1363.49C1372 4.88207 1377.89 8.89477 1381.16 16.9201C1382.15 19.4341 1382.66 21.9481 1382.66 24.4378V113.176L1462.74 4.88207H1530.04C1536.81 5.3897 1540.58 8.02454 1541.33 12.7866C1541.08 15.0346 1540.07 17.4277 1538.33 19.9417L1443.93 147.405L1553.36 304.576H1476.28C1464.24 304.334 1454.84 299.185 1448.07 289.153L1382.63 194.759V303.802H1325.1C1316.33 303.802 1310.31 299.91 1307.04 292.151C1306.03 289.637 1305.55 287.147 1305.55 284.633V4.85791L1305.57 4.88207Z" fill="black"/>
<path d="M1763.21 238.005C1771.72 238.005 1777.61 241.776 1780.88 249.293C1781.87 252.049 1782.38 254.684 1782.38 257.198V303.827H1594C1585.22 303.827 1579.2 299.935 1575.94 292.176C1574.93 289.662 1574.44 287.172 1574.44 284.658V4.88281H1761.32C1769.83 4.88281 1775.73 8.89551 1778.99 16.9209C1779.98 19.4348 1780.49 21.9488 1780.49 24.4386V70.681H1651.51V122.193H1749.65C1758.42 122.193 1764.44 126.085 1767.7 133.844C1768.69 136.358 1769.2 138.872 1769.2 141.362V184.22H1651.51V238.005H1763.18H1763.21Z" fill="black"/>
<path d="M1819.6 239.889H1877.52C1886.03 239.889 1891.93 243.66 1895.19 251.178C1896.18 253.934 1896.69 256.569 1896.69 259.083V303.826H1838.77C1830.24 303.826 1824.36 300.055 1821.1 292.538C1820.09 289.782 1819.6 287.147 1819.6 284.633V239.889ZM1826.76 127.075V4.85791H1878.66C1887.17 4.85791 1893.06 8.87057 1896.33 16.8959C1897.32 19.4099 1897.83 21.9239 1897.83 24.4136V127.075L1890.67 211.293H1850.81C1841.79 211.293 1835.77 206.652 1832.75 197.37C1832.25 195.629 1831.88 193.865 1831.62 192.1L1826.73 127.051L1826.76 127.075Z" fill="#C40C0C"/>
</svg>
