<svg width="868" height="868" viewBox="0 0 868 868" fill="none" xmlns="http://www.w3.org/2000/svg">
<path d="M118.519 75.1C120.219 75.1 121.819 75.1 123.519 75.4L684.419 139.1C704.619 141.4 720.619 157.4 722.819 177.7L752.519 446.8C754.819 467.7 741.919 487.2 721.819 493.3L373.119 598.9C365.319 601.3 358.319 606 353.219 612.3L222.019 776C213.019 787.3 200.519 792.4 188.319 792.4C167.619 792.4 147.319 777.8 144.619 753.5L75.2186 123.5C72.3186 97.4 92.9186 75.1 118.519 75.1ZM118.519 0C84.9186 0 52.7186 14.4 30.2186 39.5C7.71863 64.6 -2.98137 98.2 0.718632 131.7L70.2186 761.8C73.6186 792.4 88.3186 820.1 111.719 839.7C133.219 857.7 160.419 867.5 188.519 867.5C216.619 867.5 258.119 851.3 280.819 823L405.319 667.6L743.719 565.1C798.419 548.5 833.519 495.3 827.219 438.5L797.519 169.4C794.619 142.8 782.519 117.6 763.619 98.6C744.719 79.6 719.619 67.5 692.919 64.5L132.019 0.800003C127.519 0.300003 123.019 0 118.519 0Z" fill="url(#paint0_linear_222_2505)"/>
<path d="M140.319 133.2L181.019 135.9C186.819 136.3 191.019 138.7 193.619 143.1C194.419 144.5 194.919 145.8 195.019 147.1L205.519 256.9L267.119 255.6C272.219 255.5 275.919 257.3 278.119 260.9C278.819 262.1 279.219 263.2 279.219 264.4L280.919 286.3L170.819 291.4C164.919 291.7 160.519 289.9 157.919 286C157.119 284.7 156.619 283.5 156.419 282.2L140.319 133.2Z" fill="black"/>
<path d="M329.419 264.9L325.319 284.3L293.619 285.8C290.619 285.9 288.119 284.8 286.119 282.3C285.319 281.3 284.919 280.2 284.819 279.2C284.719 278.2 284.819 278.1 285.119 277.3L318.819 145.2L363.119 148.1C368.219 148.4 372.219 150.8 374.919 155.2C375.419 156 375.919 156.9 376.219 157.8L418.919 280L391.219 281.3C386.319 281.5 382.519 279.6 380.019 275.6C379.619 274.9 379.219 274.2 379.019 273.5L375.719 263.5L329.619 264.9H329.419ZM336.219 234.8L365.719 234.6L348.019 182.3L336.319 234.8H336.219Z" fill="black"/>
<path d="M219.919 408.2L223.519 445.8L187.619 451.7C181.919 452.6 177.919 451.4 175.319 448.1C174.519 447 174.119 445.9 173.919 444.7L159.119 307.3L229.519 303.3C255.619 301.8 275.619 307.2 290.019 319.1C300.219 327.6 305.619 337.6 306.419 349.1C307.419 362.4 302.319 374.1 291.019 384.4C278.919 395.4 261.619 402.5 238.819 405.6L219.919 408.2ZM213.019 336.4L216.919 377.3L236.019 375.2C248.719 373.8 256.819 369.3 260.519 361.7C261.719 359 262.319 356.3 262.019 353.5C261.419 346.7 257.519 341.5 250.219 337.8C245.019 335.3 239.119 334.3 232.319 334.8L212.919 336.4H213.019Z" fill="black"/>
<path d="M385.519 421.3C368.919 424 354.119 421.8 341.219 414.3C328.419 406.7 321.319 396.2 320.219 382.8L317.619 346.2C316.719 332.7 322.219 320.6 334.119 310C346.319 299.3 361.219 293.6 378.419 292.6C395.019 291.7 409.119 295.6 420.719 304.1C431.719 312.5 437.519 322.9 438.119 335.3L439.519 368.4C440.019 380.3 435.319 391.2 425.319 401.3C414.719 411.8 401.519 418.4 385.519 421.1V421.3ZM384.019 394.6C391.319 393.6 396.819 390.1 400.419 384.1C402.519 380.5 403.519 376.9 403.319 373.1L401.619 338.9C401.319 332 398.119 326.7 392.019 323.3C388.319 321.3 384.319 320.4 380.019 320.8C372.619 321.4 366.819 324.7 362.819 330.6C360.419 334.3 359.319 338.2 359.519 342.2L361.619 377.6C362.019 384.6 365.519 389.7 371.919 392.8C375.719 394.6 379.719 395.1 383.919 394.5L384.019 394.6Z" fill="black"/>
<path d="M486.819 369.2L487.819 402.6L464.819 406.4C461.219 407 458.719 405.9 457.219 403.2C456.719 402.3 456.519 401.4 456.519 400.4L452.419 290.6L496.819 288.1C513.719 287.1 526.519 291.5 535.319 301.2C541.419 307.9 544.519 315.6 544.619 324.6C544.719 333.6 541.119 343.9 533.719 351.8C530.619 355 527.019 357.8 522.919 360.1L549.219 392.6L522.419 397C517.619 397.7 513.819 396.4 511.119 393.2L490.519 368.7L486.719 369.2H486.819ZM485.219 314.4L486.119 344.3L498.419 343C506.819 342.1 512.219 338.7 514.719 332.9C515.519 331 515.919 329.1 515.919 327.2C515.819 322 513.419 318.2 508.819 315.5C505.619 313.8 501.919 313.1 497.719 313.4L485.319 314.4H485.219Z" fill="black"/>
<path d="M176.519 468L213.119 461.6C218.319 460.7 222.119 461.9 224.419 465.2C225.119 466.2 225.519 467.3 225.619 468.4L229.419 508.1L271.519 451.4L308.319 445C311.919 444.6 314.019 445.4 314.519 447.3C314.519 448.3 314.019 449.4 313.119 450.6L266.119 515.3L329.319 565.7L289.419 576.7C282.919 578.4 277.619 577.7 273.619 574.5L232.819 543.9L237.319 590.8L203.119 600.2C197.719 601.7 193.819 601 191.419 598.1C190.719 597.2 190.219 596.2 190.119 595L176.419 467.9L176.519 468Z" fill="black"/>
<path d="M425.319 514.3C428.919 513.4 431.519 514.1 433.019 516.6C433.519 517.5 433.719 518.4 433.819 519.4L434.619 536.6L349.619 560C345.319 561.2 342.319 560.5 340.519 557.8C339.919 556.9 339.619 556 339.619 555L331.819 441L420.619 425.5C424.319 424.8 427.019 426 428.519 428.8C429.019 429.7 429.219 430.6 429.319 431.6L430.119 449.4L371.619 460.9L372.819 481.5L417.619 471.9C421.419 471.1 424.119 472 425.719 474.6C426.219 475.5 426.419 476.4 426.519 477.3L427.219 493.5L374.319 505.9L375.519 526.9L425.519 514.2L425.319 514.3Z" fill="black"/>
<path d="M621.419 368.6L573.119 190.3L667.319 169.1L662.119 373.9L621.519 368.6H621.419ZM674.219 417.2L694.119 476.7L599.919 497.9L604.219 413.4L674.219 417.2Z" fill="#C40C0C"/>
<defs>
<linearGradient id="paint0_linear_222_2505" x1="648.319" y1="680.2" x2="18.8187" y2="50.7" gradientUnits="userSpaceOnUse">
<stop stop-color="#F57507"/>
<stop offset="0.3" stop-color="#E34F09"/>
<stop offset="0.5" stop-color="#D5310A"/>
<stop offset="0.6" stop-color="#CB1C0B"/>
<stop offset="0.8" stop-color="#C5100B"/>
<stop offset="1" stop-color="#C40C0C"/>
</linearGradient>
</defs>
</svg>
